rotated_Sprint_08550001_forces_filt10Hz.mot
version=1
nRows=23
nColumns=19
inDegrees=yes
endheader
time	R_ground_force_vx	R_ground_force_vy	R_ground_force_vz	R_ground_force_px	R_ground_force_py	R_ground_force_pz	R_ground_torque_x	R_ground_torque_y	R_ground_torque_z	L_ground_force_vx	L_ground_force_vy	L_ground_force_vz	L_ground_force_px	L_ground_force_py	L_ground_force_pz	L_ground_torque_x	L_ground_torque_y	L_ground_torque_z	
1.194500	  0.000000	  0.000000	  0.000000	  0.421791	  0.000000	 -0.596126	  0.000000	  0.000000	  0.000000	-263.922557	1850.701470	129.530655	  0.998225	  0.000000	 -0.372014	  0.000000	 -9.079958	  0.000000
1.195000	  0.000000	  0.000000	  0.000000	  0.424177	  0.000000	 -0.595838	  0.000000	  0.000000	  0.000000	-265.562598	1877.861256	129.194720	  0.996223	  0.000000	 -0.371657	  0.000000	 -9.514429	  0.000000
1.195500	  0.000000	  0.000000	  0.000000	  0.426591	  0.000000	 -0.595330	  0.000000	  0.000000	  0.000000	-267.135249	1904.923292	128.760969	  0.994224	  0.000000	 -0.371304	  0.000000	 -9.942282	  0.000000
1.196000	  0.000000	  0.000000	  0.000000	  0.429005	  0.000000	 -0.594822	  0.000000	  0.000000	  0.000000	-268.638082	1931.875770	128.229527	  0.992229	  0.000000	 -0.370956	  0.000000	-10.362197	  0.000000
1.196500	  0.000000	  0.000000	  0.000000	  0.431419	  0.000000	 -0.594313	  0.000000	  0.000000	  0.000000	-270.068724	1958.706770	127.600738	  0.990237	  0.000000	 -0.370613	  0.000000	-10.772933	  0.000000
1.197000	  0.000000	  0.000000	  0.000000	  0.433833	  0.000000	 -0.593805	  0.000000	  0.000000	  0.000000	-271.424910	1985.404292	126.875137	  0.988250	  0.000000	 -0.370273	  0.000000	-11.173341	  0.000000
1.197500	  0.000000	  0.000000	  0.000000	  0.436247	  0.000000	 -0.593297	  0.000000	  0.000000	  0.000000	-272.704505	2011.956304	126.053429	  0.986268	  0.000000	 -0.369938	  0.000000	-11.562380	  0.000000
1.198000	  0.000000	  0.000000	  0.000000	  0.438661	  0.000000	 -0.592789	  0.000000	  0.000000	  0.000000	-273.905525	2038.350780	125.136459	  0.984292	  0.000000	 -0.369607	  0.000000	-11.939125	  0.000000
1.198500	  0.000000	  0.000000	  0.000000	  0.441075	  0.000000	 -0.592281	  0.000000	  0.000000	  0.000000	-275.026140	2064.575731	124.125199	  0.982320	  0.000000	 -0.369281	  0.000000	-12.302759	  0.000000
1.199000	  0.000000	  0.000000	  0.000000	  0.443489	  0.000000	 -0.591772	  0.000000	  0.000000	  0.000000	-276.064667	2090.619233	123.020731	  0.980354	  0.000000	 -0.368959	  0.000000	-12.652574	  0.000000
1.199500	  0.000000	  0.000000	  0.000000	  0.445903	  0.000000	 -0.591264	  0.000000	  0.000000	  0.000000	-277.019551	2116.469448	121.824250	  0.978393	  0.000000	 -0.368641	  0.000000	-12.987957	  0.000000
1.200000	  0.000000	  0.000000	  0.000000	  0.448317	  0.000000	 -0.590756	  0.000000	  0.000000	  0.000000	-277.889352	2142.114627	120.537069	  0.976438	  0.000000	 -0.368327	  0.000000	-13.308377	  0.000000
1.200500	  0.000000	  0.000000	  0.000000	  0.450723	  0.000000	 -0.590003	  0.000000	  0.000000	  0.000000	-278.672719	2167.543116	119.160625	  0.974487	  0.000000	 -0.368018	  0.000000	-13.613371	  0.000000
1.201000	  0.000000	  0.000000	  0.000000	  0.453128	  0.000000	 -0.589249	  0.000000	  0.000000	  0.000000	-279.368371	2192.743337	117.696502	  0.972540	  0.000000	 -0.367714	  0.000000	-13.902544	  0.000000
1.201500	  0.000000	  0.000000	  0.000000	  0.455534	  0.000000	 -0.588496	  0.000000	  0.000000	  0.000000	-279.975072	2217.703783	116.146444	  0.970598	  0.000000	 -0.367414	  0.000000	-14.175552	  0.000000
1.202000	  0.000000	  0.000000	  0.000000	  0.457940	  0.000000	 -0.587743	  0.000000	  0.000000	  0.000000	-280.491608	2242.413001	114.512369	  0.968659	  0.000000	 -0.367119	  0.000000	-14.432106	  0.000000
1.202500	  0.000000	  0.000000	  0.000000	  0.460345	  0.000000	 -0.586990	  0.000000	  0.000000	  0.000000	-280.916767	2266.859590	112.796383	  0.966724	  0.000000	 -0.366829	  0.000000	-14.671965	  0.000000
1.203000	  0.000000	  0.000000	  0.000000	  0.462751	  0.000000	 -0.586236	  0.000000	  0.000000	  0.000000	-281.249306	2291.032203	111.000790	  0.964790	  0.000000	 -0.366543	  0.000000	-14.894932	  0.000000
1.203500	  0.000000	  0.000000	  0.000000	  0.465157	  0.000000	 -0.585483	  0.000000	  0.000000	  0.000000	-281.487929	2314.919570	109.128101	  0.962859	  0.000000	 -0.366262	  0.000000	-15.100848	  0.000000
1.204000	  0.000000	  0.000000	  0.000000	  0.467563	  0.000000	 -0.584730	  0.000000	  0.000000	  0.000000	-281.631264	2338.510527	107.181038	  0.960929	  0.000000	 -0.365986	  0.000000	-15.289585	  0.000000
1.204500	  0.000000	  0.000000	  0.000000	  0.469968	  0.000000	 -0.583976	  0.000000	  0.000000	  0.000000	-281.677841	2361.794046	105.162539	  0.958999	  0.000000	 -0.365715	  0.000000	-15.461035	  0.000000
1.205000	  0.000000	  0.000000	  0.000000	  0.472374	  0.000000	 -0.583223	  0.000000	  0.000000	  0.000000	-281.626080	2384.759277	103.075755	  0.957070	  0.000000	 -0.365449	  0.000000	-15.615117	  0.000000
1.205500	  0.000000	  0.000000	  0.000000	  0.474685	  0.000000	 -0.582251	  0.000000	  0.000000	  0.000000	-281.474281	2407.395578	100.924054	  0.955140	  0.000000	 -0.365187	  0.000000	-15.751775	  0.000000
